<?xml version="1.0" encoding="UTF-8" standalone="no"?><!DOCTYPE svg PUBLIC "-//W3C//DTD SVG 1.1//EN" "http://www.w3.org/Graphics/SVG/1.1/DTD/svg11.dtd"><svg width="100%" height="100%" viewBox="0 0 79 75" version="1.1" xmlns="http://www.w3.org/2000/svg" xmlns:xlink="http://www.w3.org/1999/xlink" xml:space="preserve" xmlns:serif="http://www.serif.com/" style="fill-rule:evenodd;clip-rule:evenodd;stroke-linejoin:round;stroke-miterlimit:2;"><g><path d="M16.398,34.418c0.364,-1.792 0.672,-3.428 0.923,-4.911c0.233,-1.378 0.464,-2.891 0.694,-4.538c-1.803,0.375 -3.138,0.541 -3.995,0.541c-2.729,-0 -4.902,-0.676 -6.595,-1.712c-3.027,-1.853 -4.402,-4.486 -4.402,-7.738c0,-2.473 0.801,-5.316 2.835,-8.375c2.086,-3.137 4.482,-4.965 6.848,-5.869c1.65,-0.633 3.625,-1.125 5.939,-1.426c1.938,-0.252 4.433,-0.39 7.486,-0.39c6.069,0 10.529,0.412 13.39,1.103c3.282,0.794 5.464,2.158 6.849,3.75c0.816,-0.535 1.676,-1.031 2.58,-1.489c3.723,-1.885 7.719,-2.837 11.993,-2.837c5.426,0 9.525,1.398 12.449,3.654c3.599,2.774 5.544,6.63 5.544,11.703c-0,2.278 -0.546,4.653 -1.767,7.093c-1.017,2.035 -2.407,3.945 -4.2,5.71c-0.118,0.117 -0.234,0.231 -0.351,0.343c1.165,1.619 2.03,3.239 2.626,4.842c0.761,2.048 1.161,4.264 1.161,6.656c-0,3.861 -0.986,7.597 -3.017,11.191c-1.969,3.487 -4.583,6.296 -7.828,8.443c-3.55,2.349 -7.236,3.457 -11.016,3.457c-3.341,0 -6.604,-0.708 -9.781,-2.149c-2.943,-1.335 -5.716,-3.23 -8.295,-5.718c-0.02,-0.019 -0.039,-0.038 -0.059,-0.057c-0.301,-0.298 -0.586,-0.594 -0.856,-0.89c-1.269,2.826 -2.579,5.47 -3.93,7.934c-1.28,2.351 -2.665,4.335 -4.124,5.972c-1.753,1.966 -3.598,3.404 -5.476,4.387c-2.229,1.167 -4.558,1.736 -6.979,1.736c-3.64,-0 -7.728,-1.889 -11.21,-7.189c-2.592,-3.944 -3.834,-8.072 -3.834,-12.351c-0,-3.001 0.518,-5.915 1.556,-8.741c1.105,-3.009 2.646,-5.496 4.55,-7.503c0.09,-0.095 0.183,-0.187 0.279,-0.277c1.084,-1.017 2.23,-1.895 3.433,-2.641c2.34,-1.449 4.247,-1.784 5.433,-1.784c0.389,-0 0.771,0.022 1.147,0.07Zm33.901,-14.5c-0.445,0.897 -0.683,1.834 -0.683,2.821c-0,0.702 0.154,1.361 0.473,1.976c0.567,1.094 1.592,2.3 2.97,3.701l0.004,0.003c0.92,0.858 1.591,1.467 2.021,1.817c0.064,0.053 0.128,0.107 0.19,0.162c-0.564,-0.594 -1.063,-1.163 -1.498,-1.705c-1.314,-1.637 -2.191,-3.269 -2.717,-4.849c-0.409,-1.228 -0.668,-2.536 -0.76,-3.926Zm9.437,14.764c0.489,0.586 0.951,1.219 1.377,1.893c0.699,1.005 1.278,2.014 1.744,3.025c-0.05,-0.359 -0.133,-0.702 -0.254,-1.029c-0.265,-0.713 -0.713,-1.413 -1.288,-2.133c-0.434,-0.544 -0.961,-1.128 -1.579,-1.756Zm-33.833,-18.798c-0.633,5.953 -1.277,10.869 -1.933,14.748c-0.657,3.879 -1.688,8.783 -3.094,14.713c-0.867,3.609 -1.969,7.547 -3.305,11.812c-0.515,1.5 -1.195,2.965 -2.039,4.395c-0.375,-1.289 -0.562,-2.801 -0.562,-4.535c-0,-3.188 0.41,-7.008 1.23,-11.461c0.188,-0.961 0.281,-1.629 0.281,-2.004c0,-0.797 -0.111,-1.407 -0.334,-1.828c-0.222,-0.422 -0.521,-0.633 -0.896,-0.633c-0.422,-0 -1.049,0.258 -1.881,0.773c-0.832,0.516 -1.623,1.125 -2.373,1.828c-1.312,1.383 -2.35,3.112 -3.111,5.186c-0.762,2.074 -1.143,4.213 -1.143,6.416c0,3 0.909,5.883 2.726,8.648c1.817,2.766 3.676,4.149 5.575,4.149c1.337,-0 2.62,-0.322 3.851,-0.967c1.231,-0.645 2.421,-1.611 3.57,-2.9c1.149,-1.289 2.228,-2.859 3.236,-4.71c4.549,-8.296 8.586,-18.724 12.111,-31.284c0.893,-3.047 1.767,-6.516 2.623,-10.408c0.855,-3.892 1.283,-6.331 1.283,-7.316c0,-1.289 -1.26,-2.239 -3.782,-2.849c-2.521,-0.609 -6.456,-0.914 -11.805,-0.914c-2.698,0 -4.904,0.111 -6.616,0.334c-1.713,0.223 -3.179,0.568 -4.399,1.037c-1.291,0.492 -2.505,1.594 -3.643,3.305c-1.138,1.711 -1.706,3.258 -1.706,4.641c-0,0.843 0.392,1.505 1.177,1.986c0.785,0.48 1.811,0.721 3.076,0.721c1.313,-0 3.985,-0.598 8.016,-1.793c0.938,-0.282 1.512,-0.452 1.723,-0.51c0.211,-0.059 0.51,-0.141 0.896,-0.246c0.387,-0.106 0.803,-0.217 1.248,-0.334Z" style="fill:#42c0d2;"/><path d="M48.357,33.251c-2.016,-2.039 -3.434,-3.85 -4.254,-5.432c-0.82,-1.582 -1.231,-3.275 -1.231,-5.08c0,-2.719 0.827,-5.273 2.479,-7.664c1.652,-2.39 3.867,-4.289 6.645,-5.695c2.777,-1.406 5.759,-2.11 8.947,-2.11c3.609,0 6.387,0.75 8.332,2.25c1.945,1.5 2.918,3.622 2.918,6.364c-0,1.312 -0.352,2.672 -1.055,4.078c-0.703,1.406 -1.676,2.719 -2.918,3.937c-0.844,0.844 -1.629,1.483 -2.355,1.916c-0.727,0.434 -1.336,0.651 -1.828,0.651c-0.61,-0 -0.915,-0.469 -0.915,-1.406c0,0.023 0.047,-0.34 0.141,-1.09c0.141,-1.102 0.211,-2.086 0.211,-2.953c0,-1.219 -0.182,-2.444 -0.545,-3.674c-0.363,-1.231 -0.832,-2.262 -1.406,-3.094c-0.574,-0.832 -1.119,-1.248 -1.635,-1.248c-0.258,-0 -0.551,0.199 -0.879,0.598c-0.633,0.657 -1.125,1.473 -1.476,2.447c-0.352,0.974 -0.528,1.883 -0.528,2.728c0,1.056 0.151,2.036 0.452,2.939c0.3,0.904 0.826,1.823 1.578,2.759c0.751,0.936 1.749,1.965 2.993,3.089c1.972,1.778 3.491,3.334 4.557,4.67c1.067,1.336 1.846,2.666 2.338,3.991c0.492,1.324 0.739,2.759 0.739,4.306c-0,2.719 -0.715,5.344 -2.145,7.875c-1.43,2.532 -3.322,4.576 -5.678,6.135c-2.355,1.559 -4.787,2.338 -7.295,2.338c-2.39,-0 -4.722,-0.516 -6.996,-1.547c-2.273,-1.031 -4.406,-2.508 -6.398,-4.43c-2.063,-2.039 -3.094,-3.843 -3.094,-5.414c0,-0.961 0.457,-1.898 1.371,-2.812c0.938,-0.938 2.092,-1.735 3.463,-2.391c1.371,-0.656 2.525,-0.984 3.463,-0.984c0.539,-0 0.996,0.135 1.371,0.404c0.375,0.27 0.709,0.727 1.002,1.371c0.293,0.645 0.58,1.518 0.861,2.619c0.446,1.571 0.856,2.737 1.231,3.498c0.375,0.762 0.902,1.518 1.582,2.268c0.703,0.703 1.441,1.055 2.215,1.055c0.937,-0 1.675,-0.37 2.215,-1.108c0.539,-0.739 0.808,-1.753 0.808,-3.044c0,-2.016 -0.713,-4.033 -2.141,-6.05c-0.421,-0.68 -0.883,-1.284 -1.386,-1.811c-0.503,-0.528 -1.599,-1.541 -3.289,-3.038c-0.517,-0.421 -1.338,-1.158 -2.465,-2.211Zm-22.454,-17.367c-0.445,0.117 -0.861,0.228 -1.248,0.334c-0.386,0.105 -0.685,0.187 -0.896,0.246c-0.211,0.058 -0.785,0.228 -1.723,0.51c-4.031,1.195 -6.703,1.793 -8.016,1.793c-1.265,-0 -2.291,-0.241 -3.076,-0.721c-0.785,-0.481 -1.177,-1.143 -1.177,-1.986c-0,-1.383 0.568,-2.93 1.706,-4.641c1.138,-1.711 2.352,-2.813 3.643,-3.305c1.22,-0.469 2.686,-0.814 4.399,-1.037c1.712,-0.223 3.918,-0.334 6.616,-0.334c5.349,0 9.284,0.305 11.805,0.914c2.522,0.61 3.782,1.56 3.782,2.849c0,0.985 -0.428,3.424 -1.283,7.316c-0.856,3.892 -1.73,7.361 -2.623,10.408c-3.525,12.56 -7.562,22.988 -12.111,31.284c-1.008,1.851 -2.087,3.421 -3.236,4.71c-1.149,1.289 -2.339,2.255 -3.57,2.9c-1.231,0.645 -2.514,0.967 -3.851,0.967c-1.899,-0 -3.758,-1.383 -5.575,-4.149c-1.817,-2.765 -2.726,-5.648 -2.726,-8.648c0,-2.203 0.381,-4.342 1.143,-6.416c0.761,-2.074 1.799,-3.803 3.111,-5.186c0.75,-0.703 1.541,-1.312 2.373,-1.828c0.832,-0.515 1.459,-0.773 1.881,-0.773c0.375,-0 0.674,0.211 0.896,0.633c0.223,0.421 0.334,1.031 0.334,1.828c0,0.375 -0.093,1.043 -0.281,2.004c-0.82,4.453 -1.23,8.273 -1.23,11.461c-0,1.734 0.187,3.246 0.562,4.535c0.844,-1.43 1.524,-2.895 2.039,-4.395c1.336,-4.265 2.438,-8.203 3.305,-11.812c1.406,-5.93 2.437,-10.834 3.094,-14.713c0.656,-3.879 1.3,-8.795 1.933,-14.748Z" style="fill:#e62828;fill-rule:nonzero;"/></g></svg>